<?xml version="1.0" encoding="UTF-8" standalone="no"?>
<!DOCTYPE svg PUBLIC "-//W3C//DTD SVG 1.1//EN" "http://www.w3.org/Graphics/SVG/1.1/DTD/svg11.dtd">
<!-- Created with Vectornator (http://vectornator.io/) -->
<svg height="100%" stroke-miterlimit="10" style="fill-rule:nonzero;clip-rule:evenodd;stroke-linecap:round;stroke-linejoin:round;" version="1.1" viewBox="0 0 1000 1000" width="100%" xml:space="preserve" xmlns="http://www.w3.org/2000/svg" xmlns:vectornator="http://vectornator.io" xmlns:xlink="http://www.w3.org/1999/xlink">
<defs/>
<clipPath id="ArtboardFrame">
<rect height="1000" width="1000" x="0" y="0"/>
</clipPath>
<g clip-path="url(#ArtboardFrame)" id="Untitled" vectornator:layerName="Untitled">
<g opacity="1" vectornator:layerName="Group 1">
<g opacity="1" vectornator:layerName="Curve 1">
<path d="M339.156 341.281C238.979 341.283 138.803 341.455 38.625 341.438C35.8486 341.436 33.5948 343.692 33.5938 346.469C33.5927 349.245 35.8486 351.499 38.625 351.5C138.803 351.557 238.979 351.798 339.156 351.875C342.089 351.876 344.468 349.526 344.469 346.594C344.47 343.661 342.089 341.282 339.156 341.281ZM357.906 360.219C251.487 360.258 145.045 360.481 38.625 360.5C35.8486 360.5 33.5938 362.755 33.5938 365.531C33.5938 368.308 35.8486 370.562 38.625 370.562C145.045 370.582 251.487 370.804 357.906 370.844C360.839 370.844 363.219 368.464 363.219 365.531C363.219 362.599 360.839 360.219 357.906 360.219ZM378.125 380.375C264.956 380.843 151.795 381.521 38.625 381.969C35.8486 381.979 33.5832 384.224 33.5938 387C33.6043 389.776 35.8799 392.01 38.6562 392C151.826 391.591 264.986 391.389 378.156 391C381.089 390.989 383.48 388.62 383.469 385.688C383.458 382.755 381.057 380.364 378.125 380.375ZM392.406 399.219C274.467 400.191 156.534 401.33 38.5938 402.281C35.8175 402.303 33.5718 404.567 33.5938 407.344C33.6157 410.12 35.9112 412.366 38.6875 412.344C156.628 411.431 274.56 410.705 392.5 409.812C395.432 409.789 397.773 407.401 397.75 404.469C397.727 401.536 395.339 399.196 392.406 399.219ZM392.438 419.719C274.498 420.305 156.565 421.09 38.625 421.656C35.8487 421.669 33.5809 423.911 33.5938 426.688C33.6066 429.464 35.8799 431.732 38.6562 431.719C156.596 431.191 274.528 430.851 392.469 430.344C395.401 430.33 397.764 427.932 397.75 425C397.736 422.068 395.37 419.705 392.438 419.719ZM392.438 439.469C274.498 439.843 156.565 440.396 38.625 440.75C35.8486 440.758 33.5859 443.005 33.5938 445.781C33.6016 448.558 35.8799 450.82 38.6562 450.812C156.596 450.497 274.529 450.358 392.469 450.062C395.401 450.054 397.758 447.682 397.75 444.75C397.742 441.818 395.37 439.46 392.438 439.469ZM149.469 461.531C112.524 461.571 75.5695 461.793 38.625 461.812C35.8486 461.812 33.5938 464.067 33.5938 466.844C33.5938 469.62 35.8486 471.875 38.625 471.875C75.5695 471.894 112.524 472.117 149.469 472.156C152.401 472.156 154.781 469.776 154.781 466.844C154.781 463.911 152.401 461.531 149.469 461.531ZM149.469 482.375C112.524 482.415 75.5695 482.637 38.625 482.656C35.8486 482.656 33.5938 484.911 33.5938 487.688C33.5938 490.464 35.8486 492.719 38.625 492.719C75.5695 492.738 112.524 492.96 149.469 493C152.401 493 154.781 490.62 154.781 487.688C154.781 484.755 152.401 482.375 149.469 482.375ZM149.469 502.344C112.524 502.379 75.5695 502.61 38.625 502.625C35.8486 502.625 33.5941 504.88 33.5938 507.656C33.5934 510.433 35.8486 512.687 38.625 512.688C75.5695 512.711 112.524 512.925 149.469 512.969C152.401 512.969 154.781 510.589 154.781 507.656C154.782 504.724 152.401 502.344 149.469 502.344ZM149.469 521.875C112.524 521.944 75.5695 522.201 38.625 522.25C35.8486 522.252 33.5915 524.505 33.5938 527.281C33.596 530.058 35.8486 532.283 38.625 532.281C75.5695 532.271 112.524 532.49 149.469 532.5C152.401 532.498 154.784 530.089 154.781 527.156C154.779 524.224 152.401 521.873 149.469 521.875ZM149.469 542.5C112.524 542.467 75.6013 542.616 38.6562 542.562C35.8799 542.557 33.5992 544.817 33.5938 547.594C33.5883 550.37 35.8486 552.62 38.625 552.625C75.57 552.717 112.524 553.013 149.469 553.125C152.401 553.131 154.775 550.745 154.781 547.812C154.787 544.88 152.401 542.506 149.469 542.5ZM393.25 459.594C355.464 459.633 317.692 459.856 279.906 459.875C277.13 459.875 274.875 462.13 274.875 464.906C274.875 467.683 277.13 469.937 279.906 469.938C317.692 469.957 355.464 470.179 393.25 470.219C396.182 470.219 398.563 467.839 398.562 464.906C398.562 461.974 396.182 459.594 393.25 459.594ZM393.25 478.125C355.464 478.165 317.692 478.387 279.906 478.406C277.13 478.406 274.875 480.661 274.875 483.438C274.875 486.214 277.13 488.469 279.906 488.469C317.692 488.488 355.464 488.71 393.25 488.75C396.182 488.75 398.563 486.37 398.562 483.438C398.562 480.505 396.182 478.125 393.25 478.125ZM393.25 499.844C355.464 499.883 317.692 500.106 279.906 500.125C277.13 500.125 274.875 502.38 274.875 505.156C274.875 507.933 277.13 510.188 279.906 510.188C317.692 510.207 355.464 510.429 393.25 510.469C396.182 510.469 398.563 508.089 398.562 505.156C398.562 502.224 396.182 499.844 393.25 499.844ZM393.25 520.594C355.464 520.633 317.692 520.856 279.906 520.875C277.13 520.875 274.875 523.13 274.875 525.906C274.875 528.683 277.13 530.937 279.906 530.938C317.692 530.957 355.464 531.179 393.25 531.219C396.182 531.219 398.563 528.839 398.562 525.906C398.562 522.974 396.182 520.594 393.25 520.594ZM392.469 581.938C354.953 581.977 317.422 582.199 279.906 582.219C277.13 582.219 274.875 584.474 274.875 587.25C274.875 590.026 277.13 592.281 279.906 592.281C317.422 592.301 354.953 592.523 392.469 592.562C395.401 592.562 397.75 590.182 397.75 587.25C397.75 584.318 395.401 581.937 392.469 581.938ZM392.469 601.156C354.683 601.126 316.879 601.3 279.094 601.25C276.317 601.245 274.068 603.474 274.062 606.25C274.057 609.026 276.317 611.276 279.094 611.281C316.879 611.37 354.652 611.673 392.438 611.781C395.37 611.787 397.745 609.401 397.75 606.469C397.755 603.536 395.401 601.162 392.469 601.156ZM279.125 622.781C276.349 622.763 274.081 625.005 274.062 627.781C274.044 630.558 276.286 632.825 279.062 632.844C316.848 633.113 354.621 633.586 392.406 633.875C395.339 633.894 397.731 631.526 397.75 628.594C397.769 625.661 395.432 623.269 392.5 623.25C354.714 623.04 316.911 623.011 279.125 622.781ZM392.469 642.469C354.953 642.454 317.422 642.629 279.906 642.594C277.13 642.59 274.879 644.849 274.875 647.625C274.871 650.401 277.13 652.652 279.906 652.656C317.422 652.73 354.922 653 392.438 653.094C395.37 653.098 397.746 650.745 397.75 647.812C397.754 644.88 395.401 642.473 392.469 642.469ZM393.25 661.781C355.195 661.967 317.149 662.366 279.094 662.531C276.317 662.542 274.052 664.786 274.062 667.562C274.073 670.339 276.349 672.573 279.125 672.562C317.18 672.436 355.226 672.513 393.281 672.406C396.214 672.395 398.574 670.026 398.562 667.094C398.551 664.161 396.182 661.77 393.25 661.781ZM149.469 581.938C99.646 581.977 49.8228 582.199 0 582.219C-2.77637 582.219-5.03125 584.474-5.03125 587.25C-5.03125 590.026-2.77637 592.281 0 592.281C49.8228 592.301 99.6459 592.523 149.469 592.562C152.401 592.562 154.781 590.182 154.781 587.25C154.781 584.318 152.401 581.937 149.469 581.938ZM149.469 601.156C99.646 601.196 49.8228 601.418 0 601.438C-2.77637 601.438-5.03125 603.692-5.03125 606.469C-5.03125 609.245-2.77637 611.5 0 611.5C49.8228 611.519 99.6459 611.742 149.469 611.781C152.401 611.781 154.781 609.401 154.781 606.469C154.781 603.536 152.401 601.156 149.469 601.156ZM0.03125 622.781C-2.74509 622.767-5.01735 625.005-5.03125 627.781C-5.04515 630.558-2.80759 632.83-0.03125 632.844C49.7914 633.113 99.6149 633.586 149.438 633.875C152.37 633.89 154.767 631.526 154.781 628.594C154.796 625.661 152.432 623.265 149.5 623.25C99.677 623.04 49.8541 623.011 0.03125 622.781ZM149.469 642.469C99.646 642.508 49.8228 642.762 0 642.781C-2.77637 642.781-5.03125 645.005-5.03125 647.781C-5.03125 650.558-2.77637 652.812 0 652.812C49.8228 652.832 99.6459 653.054 149.469 653.094C152.401 653.094 154.781 650.714 154.781 647.781C154.781 644.849 152.401 642.469 149.469 642.469ZM149.469 662.25C99.646 662.29 49.8228 662.512 0 662.531C-2.77637 662.531-5.03125 664.755-5.03125 667.531C-5.03125 670.308-2.77637 672.562 0 672.562C49.8228 672.582 99.6459 672.804 149.469 672.844C152.401 672.844 154.781 670.464 154.781 667.531C154.781 664.599 152.401 662.25 149.469 662.25ZM149.469 683.812C99.646 683.852 49.8228 684.074 0 684.094C-2.77637 684.094-5.03125 686.349-5.03125 689.125C-5.03125 691.901-2.77637 694.156 0 694.156C49.8228 694.176 99.6459 694.398 149.469 694.438C152.401 694.438 154.781 692.057 154.781 689.125C154.781 686.193 152.401 683.813 149.469 683.812ZM149.469 562.656C112.524 562.696 75.5698 562.918 38.625 562.938C35.8486 562.938 33.5938 565.192 33.5938 567.969C33.5938 570.745 35.8486 573 38.625 573C75.5698 573.019 112.524 573.242 149.469 573.281C152.401 573.281 154.781 570.901 154.781 567.969C154.781 565.036 152.401 562.656 149.469 562.656ZM565.469 218.219C522.124 218.549 478.782 219.065 435.438 219.375C432.661 219.394 430.419 221.661 430.438 224.438C430.456 227.214 432.724 229.456 435.5 229.438C478.845 229.166 522.186 229.095 565.531 228.844C568.464 228.824 570.832 226.432 570.812 223.5C570.793 220.568 568.401 218.199 565.469 218.219ZM565.469 259.344C522.44 259.577 479.404 259.975 436.375 260.188C433.599 260.2 431.363 262.474 431.375 265.25C431.387 268.026 433.661 270.262 436.438 270.25C479.467 270.076 522.502 270.091 565.531 269.938C568.464 269.924 570.826 267.557 570.812 264.625C570.799 261.693 568.401 259.331 565.469 259.344ZM565.469 280.438C522.44 280.617 479.404 280.965 436.375 281.125C433.599 281.134 431.366 283.411 431.375 286.188C431.384 288.964 433.661 291.197 436.438 291.188C479.467 291.066 522.471 291.132 565.5 291.031C568.432 291.022 570.822 288.651 570.812 285.719C570.803 282.786 568.401 280.428 565.469 280.438ZM565.469 300.812C522.44 301.038 479.404 301.451 436.375 301.656C433.599 301.668 431.363 303.911 431.375 306.688C431.387 309.464 433.661 311.731 436.438 311.719C479.467 311.552 522.502 311.584 565.531 311.438C568.464 311.425 570.825 309.026 570.812 306.094C570.8 303.161 568.401 300.8 565.469 300.812ZM564.562 341.156C521.533 341.196 478.498 341.418 435.469 341.438C432.692 341.438 430.438 343.692 430.438 346.469C430.438 349.245 432.692 351.5 435.469 351.5C478.498 351.519 521.533 351.742 564.562 351.781C567.495 351.781 569.875 349.401 569.875 346.469C569.875 343.536 567.495 341.156 564.562 341.156ZM564.562 360.219C521.533 360.258 478.498 360.481 435.469 360.5C432.692 360.5 430.438 362.755 430.438 365.531C430.438 368.308 432.692 370.562 435.469 370.562C478.498 370.582 521.533 370.804 564.562 370.844C567.495 370.844 569.844 368.464 569.844 365.531C569.844 362.599 567.495 360.219 564.562 360.219ZM564.562 380.375C521.849 380.415 479.12 380.637 436.406 380.656C433.63 380.656 431.375 382.911 431.375 385.688C431.375 388.464 433.63 390.719 436.406 390.719C479.12 390.738 521.849 390.96 564.562 391C567.495 391 569.875 388.62 569.875 385.688C569.875 382.755 567.495 380.375 564.562 380.375ZM435.469 399.5C432.692 399.491 430.447 401.724 430.438 404.5C430.428 407.276 432.661 409.522 435.438 409.531C478.469 409.697 521.5 410.064 564.531 410.25C567.464 410.26 569.865 407.901 569.875 404.969C569.885 402.036 567.495 399.666 564.562 399.656C521.531 399.549 478.5 399.627 435.469 399.5ZM564.562 421.375C521.533 421.415 478.498 421.637 435.469 421.656C432.692 421.656 430.438 423.911 430.438 426.688C430.438 429.464 432.692 431.719 435.469 431.719C478.498 431.738 521.533 431.96 564.562 432C567.495 432 569.844 429.62 569.844 426.688C569.844 423.755 567.495 421.375 564.562 421.375ZM564.562 439.469C521.533 439.508 478.498 439.731 435.469 439.75C432.692 439.75 430.438 442.005 430.438 444.781C430.438 447.558 432.692 449.781 435.469 449.781C478.498 449.801 521.533 450.023 564.562 450.062C567.495 450.062 569.844 447.714 569.844 444.781C569.844 441.849 567.495 439.469 564.562 439.469ZM564.562 459.594C521.533 459.633 478.498 459.856 435.469 459.875C432.692 459.875 430.438 462.13 430.438 464.906C430.438 467.683 432.692 469.937 435.469 469.938C478.498 469.957 521.533 470.179 564.562 470.219C567.495 470.219 569.844 467.839 569.844 464.906C569.844 461.974 567.495 459.594 564.562 459.594ZM564.562 478.125C521.849 478.165 479.12 478.387 436.406 478.406C433.63 478.406 431.375 480.661 431.375 483.438C431.375 486.214 433.63 488.469 436.406 488.469C479.12 488.488 521.849 488.71 564.562 488.75C567.495 488.75 569.844 486.37 569.844 483.438C569.844 480.505 567.495 478.125 564.562 478.125ZM564.562 499.844C521.533 499.883 478.498 500.106 435.469 500.125C432.692 500.125 430.438 502.38 430.438 505.156C430.438 507.933 432.692 510.188 435.469 510.188C478.498 510.207 521.533 510.429 564.562 510.469C567.495 510.469 569.844 508.089 569.844 505.156C569.844 502.224 567.495 499.844 564.562 499.844ZM564.562 520.594C521.849 520.633 479.12 520.856 436.406 520.875C433.63 520.875 431.375 523.13 431.375 525.906C431.375 528.683 433.63 530.937 436.406 530.938C479.12 530.957 521.849 531.179 564.562 531.219C567.495 531.219 569.844 528.839 569.844 525.906C569.844 522.974 567.495 520.594 564.562 520.594ZM435.5 541.719C432.724 541.705 430.451 543.943 430.438 546.719C430.424 549.495 432.661 551.768 435.438 551.781C478.467 552.011 521.502 552.438 564.531 552.688C567.464 552.702 569.829 550.339 569.844 547.406C569.858 544.474 567.495 542.077 564.562 542.062C521.533 541.892 478.529 541.91 435.5 541.719ZM564.562 562C521.533 562.04 478.498 562.262 435.469 562.281C432.692 562.281 430.438 564.536 430.438 567.312C430.438 570.089 432.692 572.344 435.469 572.344C478.498 572.363 521.533 572.585 564.562 572.625C567.495 572.625 569.844 570.245 569.844 567.312C569.844 564.38 567.495 562 564.562 562ZM564.562 581.938C521.849 581.977 479.12 582.199 436.406 582.219C433.63 582.219 431.375 584.474 431.375 587.25C431.375 590.026 433.63 592.281 436.406 592.281C479.12 592.301 521.849 592.523 564.562 592.562C567.495 592.562 569.844 590.182 569.844 587.25C569.844 584.318 567.495 581.937 564.562 581.938ZM564.562 601.156C521.849 601.126 479.12 601.3 436.406 601.25C433.63 601.245 431.379 603.474 431.375 606.25C431.37 609.026 433.63 611.277 436.406 611.281C479.12 611.37 521.817 611.673 564.531 611.781C567.464 611.786 569.839 609.401 569.844 606.469C569.849 603.536 567.495 601.161 564.562 601.156ZM564.562 622.5C521.533 622.54 478.498 622.762 435.469 622.781C432.692 622.781 430.438 625.036 430.438 627.812C430.438 630.589 432.692 632.844 435.469 632.844C478.498 632.863 521.533 633.085 564.562 633.125C567.495 633.125 569.844 630.745 569.844 627.812C569.844 624.88 567.495 622.5 564.562 622.5ZM564.531 642.312C521.817 642.406 479.12 642.708 436.406 642.781C433.63 642.785 431.371 645.036 431.375 647.812C431.379 650.589 433.63 652.816 436.406 652.812C479.12 652.778 521.849 652.952 564.562 652.938C567.495 652.934 569.848 650.557 569.844 647.625C569.84 644.693 567.464 642.309 564.531 642.312ZM564.562 662.25C521.533 662.217 478.498 662.366 435.469 662.312C432.692 662.308 430.442 664.536 430.438 667.312C430.433 670.089 432.661 672.339 435.438 672.344C478.467 672.436 521.502 672.731 564.531 672.844C567.464 672.849 569.839 670.495 569.844 667.562C569.849 664.63 567.495 662.255 564.562 662.25ZM437.375 682.688C434.599 682.68 432.32 684.942 432.312 687.719C432.305 690.495 434.567 692.743 437.344 692.75C480.059 692.882 522.753 693.223 565.469 693.375C568.401 693.383 570.805 690.995 570.812 688.062C570.82 685.13 568.432 682.758 565.5 682.75C522.784 682.677 480.091 682.781 437.375 682.688ZM953.062 341.156C856.663 341.196 760.274 341.418 663.875 341.438C661.099 341.438 658.844 343.692 658.844 346.469C658.844 349.245 661.099 351.5 663.875 351.5C760.274 351.519 856.663 351.742 953.062 351.781C955.995 351.781 958.375 349.401 958.375 346.469C958.375 343.536 955.995 341.156 953.062 341.156ZM953.062 360.219C849.337 360.258 745.6 360.481 641.875 360.5C639.099 360.5 636.875 362.755 636.875 365.531C636.875 368.308 639.099 370.562 641.875 370.562C745.6 370.582 849.337 370.804 953.062 370.844C955.995 370.844 958.375 368.464 958.375 365.531C958.375 362.599 955.995 360.219 953.062 360.219ZM953.062 380.375C842.214 380.415 731.379 380.637 620.531 380.656C617.755 380.656 615.5 382.911 615.5 385.688C615.5 388.464 617.755 390.719 620.531 390.719C731.379 390.738 842.214 390.96 953.062 391C955.995 391 958.375 388.62 958.375 385.688C958.375 382.755 955.995 380.375 953.062 380.375ZM953.062 399.219C837.587 399.258 722.1 399.481 606.625 399.5C603.849 399.5 601.625 401.724 601.625 404.5C601.625 407.276 603.849 409.531 606.625 409.531C722.1 409.551 837.587 409.773 953.062 409.812C955.995 409.812 958.375 407.432 958.375 404.5C958.375 401.568 955.995 399.219 953.062 399.219ZM953.062 419.719C837.587 419.758 722.1 419.981 606.625 420C603.849 420 601.625 422.255 601.625 425.031C601.625 427.808 603.849 430.062 606.625 430.062C722.1 430.082 837.587 430.304 953.062 430.344C955.995 430.344 958.375 427.964 958.375 425.031C958.375 422.099 955.995 419.719 953.062 419.719ZM953.062 439.469C837.587 439.508 722.1 439.731 606.625 439.75C603.849 439.75 601.625 442.005 601.625 444.781C601.625 447.558 603.849 449.781 606.625 449.781C722.1 449.801 837.587 450.023 953.062 450.062C955.995 450.062 958.375 447.714 958.375 444.781C958.375 441.849 955.995 439.469 953.062 439.469ZM716.312 459.594C679.759 459.633 643.178 459.856 606.625 459.875C603.849 459.875 601.625 462.13 601.625 464.906C601.625 467.683 603.849 469.937 606.625 469.938C643.179 469.957 679.759 470.179 716.312 470.219C719.245 470.219 721.594 467.839 721.594 464.906C721.594 461.974 719.245 459.594 716.312 459.594ZM953.062 459.594C920.122 459.633 887.191 459.856 854.25 459.875C851.474 459.875 849.219 462.13 849.219 464.906C849.219 467.683 851.474 469.937 854.25 469.938C887.191 469.957 920.122 470.179 953.062 470.219C955.995 470.219 958.375 467.839 958.375 464.906C958.375 461.974 955.995 459.594 953.062 459.594ZM716.312 478.125C679.759 478.165 643.178 478.387 606.625 478.406C603.849 478.406 601.625 480.661 601.625 483.438C601.625 486.214 603.849 488.469 606.625 488.469C643.179 488.488 679.759 488.71 716.312 488.75C719.245 488.75 721.594 486.37 721.594 483.438C721.594 480.505 719.245 478.125 716.312 478.125ZM953.062 479.875C920.122 479.915 887.191 480.137 854.25 480.156C851.474 480.156 849.219 482.411 849.219 485.188C849.219 487.964 851.474 490.219 854.25 490.219C887.191 490.238 920.122 490.46 953.062 490.5C955.995 490.5 958.375 488.12 958.375 485.188C958.375 482.255 955.995 479.875 953.062 479.875ZM953.062 499.844C920.122 499.883 887.191 500.106 854.25 500.125C851.474 500.125 849.219 502.349 849.219 505.125C849.219 507.901 851.474 510.156 854.25 510.156C887.191 510.176 920.122 510.398 953.062 510.438C955.995 510.438 958.375 508.058 958.375 505.125C958.375 502.193 955.995 499.844 953.062 499.844ZM953.062 521.875C920.122 521.915 887.191 522.137 854.25 522.156C851.474 522.156 849.219 524.411 849.219 527.188C849.219 529.964 851.474 532.188 854.25 532.188C887.191 532.207 920.122 532.46 953.062 532.5C955.995 532.5 958.375 530.12 958.375 527.188C958.375 524.255 955.995 521.875 953.062 521.875ZM953.062 542.719C920.122 542.758 887.191 542.981 854.25 543C851.474 543 849.219 545.224 849.219 548C849.219 550.776 851.474 553.031 854.25 553.031C887.191 553.051 920.122 553.273 953.062 553.312C955.995 553.312 958.375 550.932 958.375 548C958.375 545.068 955.995 542.719 953.062 542.719ZM953.062 562.656C920.122 562.696 887.191 562.918 854.25 562.938C851.474 562.938 849.219 565.192 849.219 567.969C849.219 570.745 851.474 573 854.25 573C887.191 573.019 920.122 573.242 953.062 573.281C955.995 573.281 958.375 570.901 958.375 567.969C958.375 565.036 955.995 562.656 953.062 562.656ZM1000 581.938C951.414 581.977 902.836 582.199 854.25 582.219C851.474 582.219 849.219 584.474 849.219 587.25C849.219 590.026 851.474 592.281 854.25 592.281C902.836 592.301 951.414 592.523 1000 592.562C1002.93 592.562 1005.31 590.182 1005.31 587.25C1005.31 584.318 1002.93 581.937 1000 581.938ZM1000 600.969C951.414 600.939 902.836 601.081 854.25 601.031C851.474 601.027 849.223 603.286 849.219 606.062C849.215 608.839 851.474 611.09 854.25 611.094C902.836 611.182 951.414 611.454 1000 611.562C1002.93 611.567 1005.31 609.214 1005.31 606.281C1005.32 603.349 1002.93 600.973 1000 600.969ZM1000 622.5C951.414 622.54 902.836 622.762 854.25 622.781C851.474 622.781 849.219 625.036 849.219 627.812C849.219 630.589 851.474 632.844 854.25 632.844C902.836 632.863 951.414 633.085 1000 633.125C1002.93 633.125 1005.31 630.745 1005.31 627.812C1005.31 624.88 1002.93 622.5 1000 622.5ZM1000 642.312C951.414 642.352 902.836 642.574 854.25 642.594C851.474 642.594 849.219 644.849 849.219 647.625C849.219 650.401 851.474 652.656 854.25 652.656C902.836 652.676 951.414 652.898 1000 652.938C1002.93 652.938 1005.31 650.557 1005.31 647.625C1005.31 644.693 1002.93 642.312 1000 642.312ZM1000 661.781C951.414 661.821 902.836 662.074 854.25 662.094C851.474 662.094 849.219 664.317 849.219 667.094C849.219 669.87 851.474 672.125 854.25 672.125C902.836 672.144 951.414 672.367 1000 672.406C1002.93 672.406 1005.31 670.026 1005.31 667.094C1005.31 664.161 1002.93 661.781 1000 661.781ZM1000 682.562C951.414 682.602 902.836 682.824 854.25 682.844C851.474 682.844 849.219 685.099 849.219 687.875C849.219 690.651 851.474 692.906 854.25 692.906C902.836 692.926 951.414 693.148 1000 693.188C1002.93 693.188 1005.31 690.807 1005.31 687.875C1005.31 684.943 1002.93 682.562 1000 682.562ZM716.312 499.844C679.759 499.879 643.179 500.079 606.625 500.094C603.849 500.093 601.625 502.349 601.625 505.125C601.625 507.901 603.849 510.156 606.625 510.156C643.179 510.18 679.759 510.394 716.312 510.438C719.245 510.438 721.593 508.058 721.594 505.125C721.594 502.193 719.245 499.844 716.312 499.844ZM716.312 521.969C679.759 521.978 643.21 522.167 606.656 522.156C603.88 522.154 601.627 524.38 601.625 527.156C601.623 529.933 603.849 532.185 606.625 532.188C643.179 532.237 679.728 532.493 716.281 532.562C719.214 532.565 721.591 530.214 721.594 527.281C721.596 524.349 719.245 521.971 716.312 521.969ZM606.656 542.344C603.88 542.333 601.636 544.599 601.625 547.375C601.614 550.151 603.849 552.396 606.625 552.406C643.179 552.567 679.728 552.944 716.281 553.125C719.214 553.136 721.582 550.745 721.594 547.812C721.605 544.88 719.245 542.511 716.312 542.5C679.759 542.398 643.21 542.466 606.656 542.344ZM716.312 562C679.759 562.04 643.178 562.262 606.625 562.281C603.849 562.281 601.625 564.536 601.625 567.312C601.625 570.089 603.849 572.344 606.625 572.344C643.179 572.363 679.759 572.585 716.312 572.625C719.245 572.625 721.594 570.245 721.594 567.312C721.594 564.38 719.245 562 716.312 562ZM808.469 581.938C741.193 581.977 673.901 582.199 606.625 582.219C603.849 582.219 601.625 584.474 601.625 587.25C601.625 590.026 603.849 592.281 606.625 592.281C673.901 592.301 741.193 592.523 808.469 592.562C811.401 592.562 813.781 590.182 813.781 587.25C813.781 584.318 811.401 581.937 808.469 581.938ZM808.469 601.156C741.193 601.196 673.901 601.418 606.625 601.438C603.849 601.438 601.625 603.692 601.625 606.469C601.625 609.245 603.849 611.5 606.625 611.5C673.901 611.519 741.193 611.742 808.469 611.781C811.401 611.781 813.781 609.401 813.781 606.469C813.781 603.536 811.401 601.156 808.469 601.156ZM606.656 622.781C603.88 622.771 601.635 625.005 601.625 627.781C601.615 630.558 603.849 632.833 606.625 632.844C673.901 633.113 741.162 633.586 808.438 633.875C811.37 633.886 813.77 631.495 813.781 628.562C813.792 625.63 811.432 623.261 808.5 623.25C741.224 623.04 673.932 623.011 606.656 622.781ZM808.469 642.469C741.193 642.454 673.932 642.629 606.656 642.594C603.88 642.592 601.627 644.849 601.625 647.625C601.623 650.401 603.849 652.654 606.625 652.656C673.901 652.73 741.193 653 808.469 653.094C811.401 653.096 813.779 650.745 813.781 647.812C813.784 644.88 811.401 642.471 808.469 642.469ZM606.656 662.094C603.88 662.088 601.631 664.317 601.625 667.094C601.619 669.87 603.849 672.119 606.625 672.125C673.901 672.29 741.193 672.658 808.469 672.844C811.401 672.85 813.775 670.495 813.781 667.562C813.788 664.63 811.401 662.256 808.469 662.25C741.193 662.144 673.932 662.22 606.656 662.094ZM808.469 682.562C741.193 682.602 673.901 682.824 606.625 682.844C603.849 682.844 601.625 685.099 601.625 687.875C601.625 690.651 603.849 692.906 606.625 692.906C673.901 692.926 741.193 693.148 808.469 693.188C811.401 693.188 813.781 690.807 813.781 687.875C813.781 684.943 811.401 682.562 808.469 682.562ZM392.469 542.062C354.953 542.102 317.422 542.324 279.906 542.344C277.13 542.344 274.875 544.599 274.875 547.375C274.875 550.151 277.13 552.406 279.906 552.406C317.422 552.426 354.953 552.648 392.469 552.688C395.401 552.688 397.75 550.307 397.75 547.375C397.75 544.443 395.401 542.062 392.469 542.062ZM392.469 562C354.953 562.04 317.422 562.262 279.906 562.281C277.13 562.281 274.875 564.536 274.875 567.312C274.875 570.089 277.13 572.344 279.906 572.344C317.422 572.363 354.953 572.585 392.469 572.625C395.401 572.625 397.75 570.245 397.75 567.312C397.75 564.38 395.401 562 392.469 562ZM392.469 682.562C354.683 682.602 316.879 682.824 279.094 682.844C276.317 682.844 274.063 685.099 274.062 687.875C274.062 690.651 276.317 692.906 279.094 692.906C316.879 692.926 354.683 693.148 392.469 693.188C395.401 693.188 397.75 690.807 397.75 687.875C397.75 684.943 395.401 682.562 392.469 682.562ZM564.531 238.281C521.502 238.548 478.467 239.003 435.438 239.25C432.661 239.265 430.423 241.536 430.438 244.312C430.452 247.089 432.724 249.327 435.5 249.312C478.529 249.104 521.533 249.094 564.562 248.906C567.495 248.891 569.859 246.495 569.844 243.562C569.828 240.63 567.464 238.266 564.531 238.281Z" fill="#000000" stroke="none"/>
</g>
</g>
</g>
</svg>
